<?xml version="1.0" encoding="UTF-8"?>
<svg xmlns="http://www.w3.org/2000/svg" viewBox="100 440 880 220" fill="none" role="img" aria-label="BimaNyaya">
<path d="M0 0 C4.53520138 0.80985739 5.72385494 1.96532469 8.5 5.625 C9.23526472 8.89543417 9.29006329 12.09443045 9.3125 15.4375 C9.33763672 16.32115234 9.36277344 17.20480469 9.38867188 18.11523438 C9.44730558 20.28468134 9.47657386 22.45488727 9.5 24.625 C10.42850266 24.62420441 11.35700531 24.62340881 12.31364441 24.62258911 C21.06847505 24.62038037 29.82265233 24.64679395 38.57729626 24.7052784 C43.0781199 24.73433824 47.57842246 24.7523685 52.0793457 24.74511719 C56.42396584 24.73852474 60.76755623 24.76100293 65.11196327 24.80355453 C66.76849006 24.81468746 68.42512125 24.81538411 70.0816555 24.80542374 C72.40477821 24.79324681 74.72475965 24.81833099 77.04760742 24.85205078 C78.07260094 24.83371941 78.07260094 24.83371941 79.11830139 24.8150177 C81.83722569 24.88603294 83.91353749 25.12412267 86.01929569 26.92257786 C88.57844016 29.93049829 90.50571117 33.17479583 92.19140625 36.73046875 C92.88737915 38.18646484 92.88737915 38.18646484 93.59741211 39.671875 C94.08089111 40.70828125 94.56437012 41.7446875 95.0625 42.8125 C95.57627197 43.89660156 96.09004395 44.98070312 96.61938477 46.09765625 C101.04228705 55.49304825 105.26838643 64.97505277 109.40258789 74.50073242 C111.86252924 80.13096108 114.43151198 85.5347501 117.60180664 90.80273438 C118.5 92.625 118.5 92.625 118.5 95.625 C114.21 95.625 109.92 95.625 105.5 95.625 C101.48687637 87.92610724 97.69824319 80.14956674 94.1796875 72.2109375 C93.89238266 71.56350082 93.60507782 70.91606415 93.30906677 70.24900818 C91.85573765 66.96793269 90.41304894 63.68256187 88.98168945 60.3918457 C88.43978032 59.16089765 87.89771349 57.930019 87.35546875 56.69921875 C86.87746826 55.60182373 86.39946777 54.50442871 85.90698242 53.3737793 C84.64627447 50.91077203 83.58809207 49.39522991 81.5 47.625 C74.10832287 63.59883152 66.76162506 79.59158892 59.5 95.625 C55.21 95.625 50.92 95.625 46.5 95.625 C47.35392774 90.50143355 48.50667183 87.22567736 50.875 82.8125 C55.18629425 74.51135002 58.9293184 65.9895921 62.64208984 57.40698242 C63.08504395 56.38580322 63.52799805 55.36462402 63.984375 54.3125 C64.37334961 53.40886719 64.76232422 52.50523437 65.16308594 51.57421875 C66.83943104 47.87621859 68.68421708 44.25656584 70.5 40.625 C28.59 40.625 -13.32 40.625 -56.5 40.625 C-56.34171964 71.29042406 -56.34171964 71.29042406 -56.13964844 101.95556641 C-56.12158203 107.89526367 -56.12158203 107.89526367 -56.1182251 110.67855835 C-56.11209486 112.6166654 -56.09805142 114.55475747 -56.07769775 116.49276733 C-56.04836249 119.43376037 -56.04437771 122.3738237 -56.04589844 125.31494141 C-56.031506 126.17397882 -56.01711357 127.03301624 -56.002285 127.9180851 C-56.03940801 133.29142617 -56.9060197 136.37221142 -60.5 140.625 C-64.40649118 142.94777854 -68.02324921 143.09623693 -72.5 142.625 C-78.22913033 139.5933352 -81.35778975 135.28279747 -85.0625 130.0625 C-85.66602295 129.228396 -86.2695459 128.39429199 -86.89135742 127.53491211 C-91.69403823 120.85920455 -96.33991816 114.07705238 -100.95092773 107.26806641 C-104.5655045 101.94126336 -108.32952228 96.78721945 -112.23828125 91.671875 C-115.52039311 87.25037716 -118.61155983 82.7028861 -121.69580078 78.1418457 C-125.74633414 71.4744559 -125.74633414 71.4744559 -131.5 66.625 C-131.49333817 67.4783342 -131.48667633 68.3316684 -131.47981262 69.21086121 C-131.41966168 77.25900417 -131.37400534 85.30707147 -131.34456348 93.35538769 C-131.32891818 97.49296356 -131.30770083 101.63035343 -131.27368164 105.76782227 C-131.24104741 109.76191851 -131.22313844 113.75583602 -131.21536827 117.75005531 C-131.20983203 119.27267584 -131.199021 120.79528675 -131.18280983 122.31783104 C-131.16098086 124.4532307 -131.15803526 126.5878951 -131.15942383 128.72338867 C-131.15276199 129.9380632 -131.14610016 131.15273773 -131.13923645 132.40422058 C-131.53517758 135.93905399 -132.38069304 137.79836991 -134.5 140.625 C-138.14710657 142.91746699 -141.43146722 142.8870524 -145.56640625 142.23828125 C-148.78586864 141.21715884 -150.45931726 139.22223258 -152.5 136.625 C-153.4007505 133.9227485 -153.62885554 132.35789888 -153.64044189 129.58415222 C-153.64615204 128.76411209 -153.65186218 127.94407196 -153.65774536 127.09918213 C-153.65886322 126.20302185 -153.65998108 125.30686157 -153.66113281 124.38354492 C-153.66609772 123.43689468 -153.67106262 122.49024445 -153.67617798 121.51490784 C-153.69080111 118.37842078 -153.69760196 115.24198431 -153.703125 112.10546875 C-153.70887644 109.92694599 -153.71463417 107.74842324 -153.72039795 105.56990051 C-153.73090844 100.99931604 -153.73675076 96.42874916 -153.74023438 91.8581543 C-153.74571842 86.00373158 -153.76974449 80.14954152 -153.79820633 74.29519176 C-153.81683734 69.79388247 -153.82203857 65.29262916 -153.82357025 60.79128456 C-153.82659638 58.63313844 -153.83462354 56.47499329 -153.84775543 54.31688499 C-153.8648249 51.2959566 -153.8629333 48.27559583 -153.85644531 45.25463867 C-153.8656601 44.36455109 -153.87487488 43.4744635 -153.8843689 42.55740356 C-153.84265058 36.35114322 -152.32807158 32.51944667 -149 27.25 C-145.51046562 24.98180265 -142.53874465 25.05011749 -138.44921875 24.8984375 C-130.73838203 26.79806085 -126.12337359 34.37018401 -121.75 40.5 C-121.14438232 41.33499023 -120.53876465 42.16998047 -119.91479492 43.03027344 C-115.67696593 48.90069497 -111.54894577 54.84416716 -107.48242188 60.83422852 C-103.90355304 66.0935005 -100.14994238 71.20772994 -96.35620117 76.31323242 C-93.01074338 80.84713639 -89.96517748 85.51738128 -87.00390625 90.3125 C-85.63691029 92.4144782 -84.19845586 94.29179628 -82.5625 96.1875 C-80.5 98.625 -80.5 98.625 -80.5 100.625 C-79.84 100.625 -79.18 100.625 -78.5 100.625 C-78.50999275 99.42682899 -78.50999275 99.42682899 -78.52018738 98.20445251 C-78.58043021 90.65726936 -78.62604106 83.11020367 -78.65543652 75.56284237 C-78.67105735 71.68314754 -78.69222949 67.80365227 -78.72631836 63.92407227 C-78.75904056 60.17635208 -78.77687994 56.42882322 -78.78463173 52.68097115 C-78.79015227 51.25489861 -78.80093244 49.82883593 -78.81719017 48.40284538 C-78.97311705 34.15270596 -78.97311705 34.15270596 -75.5 28.625 C-72.22541818 25.5002758 -69.81157311 25.23792249 -65.35449219 25.19262695 C-64.11350769 25.17283279 -62.87252319 25.15303864 -61.59393311 25.13264465 C-60.24491528 25.12587544 -58.8958958 25.11942851 -57.546875 25.11328125 C-56.16252042 25.09643065 -54.77818111 25.07827988 -53.39385986 25.05888367 C-49.75745412 25.0114183 -46.12111028 24.98158692 -42.48449707 24.95544434 C-38.77079037 24.92562107 -35.05729687 24.87909688 -31.34375 24.83398438 C-24.06260586 24.74799084 -16.78144616 24.68062839 -9.5 24.625 C-9.48582031 23.31144531 -9.47164062 21.99789063 -9.45703125 20.64453125 C-9.41012012 18.90881949 -9.36187279 17.17314348 -9.3125 15.4375 C-9.30379883 14.14102539 -9.30379883 14.14102539 -9.29492188 12.81835938 C-9.14039236 8.33700353 -8.9485567 6.21631344 -6.16796875 2.55078125 C-3.5 0.625 -3.5 0.625 0 0 Z " fill="#2eff8e" transform="translate(672.5,453.375)"/>
<path d="M0 0 C4.02068789 2.97334087 7.48297887 6.46140205 11 10 C11.66 9.113125 12.32 8.22625 13 7.3125 C17.95309546 1.41064259 24.39476311 -1.9773261 32 -3 C40.70764498 -3.7308202 49.10787514 -2.69349445 56 3 C63.36493119 9.83194275 67.04151163 17.87152225 67.50170898 27.94287109 C67.52103773 30.0529722 67.51835198 32.16336526 67.49609375 34.2734375 C67.49754898 35.40020905 67.49900421 36.52698059 67.50050354 37.68789673 C67.49885509 40.04928191 67.48741336 42.41067904 67.46655273 44.77197266 C67.43740966 48.38620347 67.44600444 51.9989815 67.45898438 55.61328125 C67.45275153 57.91667378 67.44436415 60.22006171 67.43359375 62.5234375 C67.43652939 63.60056 67.43946503 64.6776825 67.44248962 65.78744507 C67.32433631 75.15087262 67.32433631 75.15087262 64 79 C60.56868952 81.39393754 57.99049011 82.25171805 53.875 81.9375 C49.83901829 80.96105281 48.42023428 80.29151862 46 77 C45.07504614 74.22513841 44.8665156 72.52269228 44.84228516 69.65551758 C44.83202301 68.78063187 44.82176086 67.90574615 44.81118774 67.00434875 C44.80388641 66.06060898 44.79658508 65.1168692 44.7890625 64.14453125 C44.76098292 62.13996595 44.73231839 60.13540877 44.703125 58.13085938 C44.66195865 54.97550784 44.62506539 51.82030618 44.59863281 48.66479492 C44.57088874 45.61605569 44.52500636 42.56800274 44.4765625 39.51953125 C44.47330963 38.58591263 44.47005676 37.65229401 44.46670532 36.69038391 C44.3464482 30.22511974 43.82641217 23.74076332 38.9375 19 C33.35502378 17.09958256 27.46587653 16.91876917 22.0625 19.5 C17.80807258 22.97300197 16.34428726 27.0238602 15.72558594 32.37213135 C15.60936817 34.98388138 15.58499672 37.58102962 15.59375 40.1953125 C15.57749573 41.62192703 15.57749573 41.62192703 15.56091309 43.07736206 C15.51533806 47.1141903 15.50357137 51.15094899 15.48876953 55.18798828 C15.47304738 58.14899312 15.44005268 61.10946772 15.40625 64.0703125 C15.40927124 64.97669464 15.41229248 65.88307678 15.41540527 66.81692505 C15.35467611 71.95005113 14.88585733 75.56689535 12 80 C8.21794085 82.55845178 4.44602203 82.15572521 0.08984375 81.546875 C-2.86961704 80.77243666 -4.25447146 79.4728321 -6 77 C-6.91504625 74.25486126 -7.13312785 72.59389011 -7.15771484 69.76318359 C-7.16797699 68.91154633 -7.17823914 68.05990906 -7.18881226 67.1824646 C-7.19611359 66.26373566 -7.20341492 65.34500671 -7.2109375 64.3984375 C-7.23902209 62.44400227 -7.26768665 60.48957531 -7.296875 58.53515625 C-7.33799944 55.46110406 -7.37489492 52.38720346 -7.40136719 49.31298828 C-7.42916379 46.34114819 -7.47505042 43.37000455 -7.5234375 40.3984375 C-7.52669037 39.49185394 -7.52994324 38.58527039 -7.53329468 37.6512146 C-7.65858286 31.06745395 -8.19939094 23.80060906 -13.0625 18.9375 C-18.83861856 17.0940579 -23.99656385 16.98006887 -29.4375 19.75 C-33.05998775 22.93072095 -35.04519035 25.27327417 -36 30 C-36.0960261 31.49972047 -36.14512705 33.00287638 -36.15771484 34.50561523 C-36.17310806 35.83235512 -36.17310806 35.83235512 -36.18881226 37.18589783 C-36.19611359 38.13388748 -36.20341492 39.08187714 -36.2109375 40.05859375 C-36.23899904 42.07357593 -36.26766346 44.08854979 -36.296875 46.10351562 C-36.33816826 49.2744937 -36.37506482 52.44531516 -36.40136719 55.61645508 C-36.42897627 58.68082553 -36.47483814 61.74449392 -36.5234375 64.80859375 C-36.52669037 65.75455917 -36.52994324 66.7005246 -36.53329468 67.67515564 C-36.62445782 72.55975414 -36.74394738 76.07786949 -40 80 C-43.65669358 82.07542068 -46.84235546 82.50909933 -51 82 C-54.6578218 79.96006092 -56.66946174 78.49580738 -59 75 C-59.27415466 72.0221405 -59.27415466 72.0221405 -59.30639648 68.32885742 C-59.31472 67.65530716 -59.32304352 66.9817569 -59.33161926 66.28779602 C-59.35572073 64.06029481 -59.36449209 61.83308654 -59.37109375 59.60546875 C-59.38006123 58.05471204 -59.3891831 56.50395622 -59.39845276 54.95320129 C-59.41494655 51.70079446 -59.42264334 48.44849059 -59.42553711 45.19604492 C-59.43091609 41.03626456 -59.46857298 36.87745756 -59.51428127 32.71795177 C-59.54408548 29.51366175 -59.55126141 26.30960494 -59.55226326 23.10518837 C-59.5564603 21.57221337 -59.56887407 20.03923734 -59.58978081 18.50639915 C-59.61676316 16.35665661 -59.61185209 14.20915388 -59.59936523 12.05932617 C-59.60443588 10.83815598 -59.60950653 9.61698578 -59.61473083 8.35881042 C-58.79317863 3.86995454 -57.18321953 2.22474215 -54 -1 C-50.89951072 -2.55024464 -48.42105782 -2.28992015 -45 -2 C-42.125 -0.4375 -42.125 -0.4375 -40 2 C-39.1875 5.75 -39.1875 5.75 -39 9 C-38.01 9 -37.02 9 -36 9 C-35.61908203 8.10667969 -35.61908203 8.10667969 -35.23046875 7.1953125 C-32.55521193 2.42231461 -27.57018966 -0.3602931 -22.625 -2.375 C-14.74712555 -3.73325421 -7.24031907 -3.73735894 0 0 Z " fill="#2eff8e" transform="translate(335,514)"/>
<path d="M0 0 C3.14781774 2.30916557 5.98082306 4.77308482 8.703125 7.5703125 C8.7959375 5.9615625 8.7959375 5.9615625 8.890625 4.3203125 C9.703125 0.5703125 9.703125 0.5703125 11.828125 -1.8671875 C15.52291248 -3.87522418 17.54848587 -4.08568315 21.703125 -3.4296875 C24.67040789 -1.63073076 27.12662928 0.41732107 28.703125 3.5703125 C28.82082227 5.78988517 28.87297827 8.01302384 28.89599609 10.2355957 C28.90826233 11.26274185 28.90826233 11.26274185 28.92077637 12.31063843 C28.94562448 14.5807813 28.962145 16.85086165 28.9765625 19.12109375 C28.98188618 19.89633078 28.98720985 20.6715678 28.99269485 21.47029686 C29.01942429 25.57385647 29.03879954 29.67738568 29.05322266 33.78100586 C29.06986778 38.01820421 29.11464391 42.25462434 29.1655941 46.49152851 C29.19926155 49.75065497 29.21079944 53.00959661 29.21644974 56.26888084 C29.223164 57.83060845 29.23839088 59.39232382 29.26234055 60.95388222 C29.29398674 63.14218034 29.29403129 65.32837854 29.28662109 67.5168457 C29.29470795 68.76101761 29.3027948 70.00518951 29.31112671 71.2870636 C28.53767832 75.46373539 26.94003462 76.91721894 23.703125 79.5703125 C20.60263572 81.12055714 18.12418282 80.86023265 14.703125 80.5703125 C11.828125 79.0078125 11.828125 79.0078125 9.703125 76.5703125 C8.890625 72.8203125 8.890625 72.8203125 8.703125 69.5703125 C8.05085938 70.11300781 7.39859375 70.65570312 6.7265625 71.21484375 C-2.97269532 79.1545017 -10.66734876 82.57768978 -23.296875 81.5703125 C-33.67180519 79.69551654 -42.27682881 74.2310538 -48.296875 65.5703125 C-55.86970363 53.69591114 -56.83990727 39.4135476 -54.171875 25.8828125 C-51.46861707 15.44697958 -45.43594808 6.15679157 -36.25390625 0.2578125 C-24.9317407 -5.69891676 -11.21262918 -6.97928959 0 0 Z " fill="#2eff8e" transform="translate(471.296875,515.4296875)"/>
<path d="M0 0 C1.79260002 -0.01407143 1.79260002 -0.01407143 3.62141418 -0.02842712 C4.90481186 -0.01719315 6.18820953 -0.00595917 7.51049805 0.00561523 C8.8518227 0.00546008 10.19314779 0.00396839 11.5344696 0.00120544 C14.34300613 -0.00017685 17.15103095 0.01234483 19.95947266 0.03515625 C23.54040906 0.06345884 27.12049062 0.0608241 30.70148945 0.04806614 C33.47182877 0.04107167 36.24197447 0.04894218 39.01228905 0.06132317 C40.96857479 0.06797273 42.92488793 0.06371545 44.88117981 0.05921936 C51.6352036 0.13034229 56.82574935 0.62091459 62.9597168 3.50170898 C64.14307617 4.02764648 64.14307617 4.02764648 65.3503418 4.56420898 C68.79324813 6.30012815 71.97862903 8.01746918 74.9597168 10.50170898 C73.67969172 14.34178421 72.05442223 15.1314775 68.7722168 17.43920898 C67.7822168 18.13916992 66.7922168 18.83913086 65.7722168 19.56030273 C62.8544254 21.5743893 59.93414231 23.5723519 56.9597168 25.50170898 C55.8150293 24.54264648 55.8150293 24.54264648 54.6472168 23.56420898 C51.29028921 20.98796223 48.87733555 20.38286013 44.76367188 20.29638672 C43.91131958 20.27620483 43.05896729 20.25602295 42.18078613 20.23522949 C41.28927856 20.21875366 40.397771 20.20227783 39.47924805 20.18530273 C38.65662476 20.16665161 37.83400146 20.14800049 36.9864502 20.12878418 C33.91514774 20.06051417 30.84366948 20.00034777 27.7722168 19.93920898 C20.9040918 19.79483398 14.0359668 19.65045898 6.9597168 19.50170898 C7.2897168 45.24170898 7.6197168 70.98170898 7.9597168 97.50170898 C15.1990918 97.60483398 22.4384668 97.70795898 29.8972168 97.81420898 C32.16459717 97.859729 34.43197754 97.90524902 36.76806641 97.95214844 C38.59104946 97.96676897 40.41404901 97.97950593 42.23706055 97.98999023 C43.16264771 98.01557007 44.08823486 98.0411499 45.04187012 98.06750488 C51.68376321 98.0719029 56.65641118 96.62430605 61.9597168 92.50170898 C65.11635755 87.5276084 65.96029392 82.28399151 64.9597168 76.50170898 C63.07557765 73.1736266 63.07557765 73.1736266 60.9597168 70.50170898 C60.9597168 66.42726568 63.05140929 64.38425865 65.4597168 61.31420898 C65.88897461 60.75540039 66.31823242 60.1965918 66.76049805 59.62084961 C67.82049735 58.24285052 68.88927868 56.87161491 69.9597168 55.50170898 C77.35639537 58.99039185 83.78325629 63.737677 87.1472168 71.36499023 C89.53750749 80.59289131 89.48364379 91.82575235 85.2097168 100.46264648 C79.79685848 109.29237161 72.65808904 113.6137296 62.56985474 116.07090759 C56.75600849 117.03047874 50.82992828 116.83150839 44.9519043 116.83764648 C43.49797437 116.8440842 42.04404571 116.85081326 40.59011841 116.8578186 C37.55589797 116.86973858 34.521791 116.8735045 31.48754883 116.87231445 C27.60939981 116.87211062 23.73197827 116.8995018 19.854002 116.93385887 C16.85646242 116.956137 13.85909841 116.96015186 10.86148453 116.959095 C9.43179931 116.96144615 8.00210889 116.97024231 6.57250595 116.98575974 C4.57260407 117.00545105 2.57248601 116.99705112 0.57250977 116.98754883 C-0.56251984 116.99039886 -1.69754944 116.9932489 -2.86697388 116.9961853 C-6.79540945 116.38404253 -8.94908204 114.96073365 -12.0402832 112.50170898 C-14.08275679 109.4379986 -14.29125648 108.82710308 -14.30097961 105.37820435 C-14.30806442 104.53989075 -14.31514923 103.70157715 -14.32244873 102.83786011 C-14.31997131 101.92142731 -14.3174939 101.00499451 -14.31494141 100.06079102 C-14.32005234 99.09302734 -14.32516327 98.12526367 -14.33042908 97.12817383 C-14.34435439 93.92189385 -14.34336594 90.71582815 -14.34106445 87.50952148 C-14.34495006 85.2837618 -14.34928445 83.05800285 -14.35404968 80.83224487 C-14.36151844 76.1632853 -14.36121607 71.49440134 -14.35595703 66.82543945 C-14.35016472 60.8408634 -14.36708466 54.85659706 -14.3903017 48.87207222 C-14.40503157 44.27385649 -14.4059117 39.67571545 -14.40279198 35.07748032 C-14.40330567 32.8710659 -14.40855233 30.66464735 -14.4186039 28.45825577 C-14.43093486 25.37243778 -14.42419615 22.28722427 -14.41259766 19.20141602 C-14.42024139 18.28903168 -14.42788513 17.37664734 -14.4357605 16.43661499 C-14.3829213 10.07906973 -13.35856863 6.79105163 -8.7303009 2.2205658 C-5.53938961 0.18164999 -3.76146406 0.00059617 0 0 Z " fill="#2eff8e" transform="translate(132.040283203125,478.498291015625)"/>
<path d="M0 0 C5.15520836 4.72119698 9.48285671 10.38731076 10.16976929 17.51844788 C10.17739288 18.52564377 10.18501648 19.53283966 10.19287109 20.57055664 C10.2056308 21.71847183 10.2183905 22.86638702 10.23153687 24.04908752 C10.23376251 25.27941208 10.23598816 26.50973663 10.23828125 27.77734375 C10.24826645 29.68355751 10.24826645 29.68355751 10.25845337 31.62828064 C10.26857046 34.31230717 10.27413682 36.99592839 10.27294922 39.67993164 C10.27274553 43.11560704 10.30010946 46.55045986 10.33449364 49.98593998 C10.36208933 53.27054385 10.3609107 56.55513965 10.36328125 59.83984375 C10.37765228 61.07219254 10.39202332 62.30454132 10.40682983 63.57423401 C10.40067657 64.71899704 10.39452332 65.86376007 10.38818359 67.04321289 C10.39103363 68.04961319 10.39388367 69.05601349 10.39682007 70.09291077 C9.76169584 73.49574278 8.61826755 74.65178019 5.90234375 76.7421875 C1.25743708 77.86595524 -0.96904598 78.13929111 -5.47265625 76.5546875 C-8.14073803 74.71244056 -9.14362337 73.79509272 -10.09765625 70.7421875 C-10.09765625 69.7521875 -10.09765625 68.7621875 -10.09765625 67.7421875 C-10.75765625 67.7421875 -11.41765625 67.7421875 -12.09765625 67.7421875 C-12.30777344 68.33644531 -12.51789062 68.93070313 -12.734375 69.54296875 C-14.61008972 72.56883518 -16.72236311 73.40064739 -19.91015625 74.9296875 C-20.94785156 75.43886719 -21.98554687 75.94804688 -23.0546875 76.47265625 C-31.74517018 80.09833901 -41.87095199 79.8275574 -50.7109375 76.78125 C-57.98789474 73.61321297 -62.84916889 70.05128406 -66.09765625 62.7421875 C-68.32096347 55.43703521 -67.96334318 47.61603014 -64.48046875 40.80859375 C-59.34244596 33.13058795 -51.66542791 29.33579554 -42.875 27.20288086 C-39.62812215 26.66430328 -36.55713401 26.63003121 -33.265625 26.64453125 C-31.97333984 26.64775391 -30.68105469 26.65097656 -29.34960938 26.65429688 C-27.99479099 26.66265085 -26.63997328 26.67111578 -25.28515625 26.6796875 C-23.9108089 26.6847075 -22.5364598 26.68926953 -21.16210938 26.69335938 C-17.80724701 26.70513082 -14.45247404 26.72157467 -11.09765625 26.7421875 C-11.37114759 25.30267997 -11.65751034 23.86561425 -11.94921875 22.4296875 C-12.10729004 21.62917969 -12.26536133 20.82867188 -12.42822266 20.00390625 C-13.44389638 16.57239592 -15.29854498 14.8748437 -18.09765625 12.7421875 C-24.23124551 10.61055895 -32.50671243 10.63305806 -38.65234375 12.53125 C-41.46008015 13.91922535 -43.71022555 15.39225009 -46.03515625 17.4921875 C-49.53813303 19.61520373 -53.14630495 19.59843059 -57.09765625 18.7421875 C-59.84952949 16.99043072 -60.45355228 15.75637812 -62.09765625 12.7421875 C-62.24819433 8.45185228 -61.68733 6.49268136 -59.03515625 3.1171875 C-43.50345487 -9.44035829 -16.73028737 -12.5243492 0 0 Z " fill="#2eff8e" transform="translate(952.09765625,518.2578125)"/>
<path d="M0 0 C8.48980393 5.22449473 10.82035217 14.80740868 14.14746094 23.72949219 C15.19313948 26.51437491 16.25724737 29.2920212 17.3203125 32.0703125 C18.15136894 34.25508387 18.98209544 36.43998077 19.8125 38.625 C20.22201904 39.69298828 20.63153809 40.76097656 21.0534668 41.86132812 C21.6244812 43.37243164 21.6244812 43.37243164 22.20703125 44.9140625 C22.5522583 45.8210791 22.89748535 46.7280957 23.25317383 47.66259766 C24 50 24 50 24 53 C24.99 53 25.98 53 27 53 C27.10795898 52.33645508 27.21591797 51.67291016 27.32714844 50.98925781 C28.16586257 47.26312724 29.44195114 43.74608782 30.765625 40.171875 C31.04090027 39.42343323 31.31617554 38.67499146 31.59979248 37.90386963 C32.18287869 36.32304074 32.76798506 34.74295571 33.35498047 33.16357422 C34.24083956 30.7747027 35.11484674 28.38171866 35.98828125 25.98828125 C44.18821291 3.73026436 44.18821291 3.73026436 51 0 C55.98781093 -0.62347637 58.99540628 -0.06233637 63 3 C65.49196416 7.98392832 64.50465209 13.46080062 62.82861328 18.57275391 C61.20461688 22.71020793 59.38426238 26.75931528 57.5625 30.8125 C56.91187739 32.29617787 56.26304784 33.78064326 55.6159668 35.26586914 C54.33695752 38.19530607 53.04905113 41.12052034 51.75195312 44.04199219 C49.91749481 48.17702554 48.12794235 52.33028912 46.35473633 56.49194336 C45.66333202 58.11428981 44.96789275 59.73492294 44.26831055 61.35375977 C42.2069356 66.12669073 40.21075858 70.92146594 38.25390625 75.73828125 C37.77590576 76.90174072 37.29790527 78.0652002 36.80541992 79.26391602 C35.88125508 81.51620306 34.9678699 83.77295715 34.06762695 86.03491211 C29.65147311 96.73914919 22.74246395 107.50830057 11.8125 112.4375 C3.63462898 113.64407113 -4.75007582 114.47335747 -12 110 C-15.13733108 107.18444647 -16.26183591 105.07079929 -16.5 100.9375 C-16 97 -16 97 -14.375 94.5625 C-9.91062291 91.62540981 -6.04677871 91.94933016 -0.9375 92.625 C2.20148404 92.96854698 3.83164476 93.05489845 6.875 92.0625 C11.00139081 88.05747363 13.39241891 82.70641773 14 77 C13.06374635 73.90534226 13.06374635 73.90534226 11.5 70.6953125 C11.22894943 70.09926208 10.95789886 69.50321167 10.67863464 68.88909912 C9.79839568 66.96163531 8.89946966 65.04355424 8 63.125 C7.38982695 61.79759098 6.78086126 60.46962632 6.1730957 59.14111328 C4.46586764 55.41927177 2.73624249 51.70839619 1 48 C0.61118652 47.16919922 0.22237305 46.33839844 -0.17822266 45.48242188 C-1.05504865 43.61268681 -1.93367236 41.74379507 -2.8125 39.875 C-5.43096501 34.28280086 -7.97250534 28.66131975 -10.4375 23 C-10.79239502 22.20964355 -11.14729004 21.41928711 -11.51293945 20.60498047 C-13.53216896 15.89662063 -14.51094714 12.22083163 -14 7 C-11.04675853 0.67162543 -6.84558578 -1.234024 0 0 Z " fill="#2eff8e" transform="translate(814,512)"/>
<path d="M0 0 C5.23498101 1.99427848 7.49996703 6.2366796 10 11 C12.22141864 16.21206874 14.20985856 21.50409403 16.1875 26.8125 C16.98622923 28.94027611 17.78743518 31.06705175 18.59284973 33.19230652 C19.31739613 35.10644912 20.03427909 37.02348735 20.75073242 38.94067383 C21.9216685 42.09806873 21.9216685 42.09806873 24 45 C24.81779841 47.64017635 25.3809489 50.30270591 26 53 C26.66 53 27.32 53 28 53 C28.226875 51.741875 28.45375 50.48375 28.6875 49.1875 C29.7415579 44.42939356 31.5642276 40.32531031 33.6484375 35.9375 C35.04011656 32.91281025 36.25517906 29.86217384 37.4375 26.75 C38.05625 25.13351562 38.05625 25.13351562 38.6875 23.484375 C39.62329133 21.00007182 40.53698409 18.51251001 41.4375 16.015625 C41.93702027 14.67690423 42.43701152 13.3383591 42.9375 12 C43.37964844 10.783125 43.82179688 9.56625 44.27734375 8.3125 C46.39636498 4.23782879 48.24449752 2.60219978 52 0 C56.46592888 -0.71773857 58.41019494 -0.32766948 62.375 1.875 C65 4 65 4 66 6 C66.52365284 11.13179786 65.47920594 14.39506496 63.35327148 19.00854492 C61.65119525 22.77104539 60.0554562 26.5737354 58.4609375 30.3828125 C58.13640594 31.15629532 57.81187439 31.92977814 57.47750854 32.72669983 C56.79510745 34.35314714 56.11298517 35.97971145 55.43112183 37.60638428 C49.74305287 51.17116398 44.02912121 64.72132527 38.1015625 78.18359375 C36.71927215 81.32601718 35.38232833 84.48136267 34.0859375 87.66015625 C29.44499407 98.94645816 24.61221421 106.99880608 13 112 C5.04490705 114.55408915 -3.61274366 113.6264713 -11 110 C-13.60762189 107.8147394 -13.9757662 107.10066346 -14.8125 103.625 C-15.00373364 99.92781633 -14.84614455 98.16481923 -13 95 C-11.3515625 93.328125 -11.3515625 93.328125 -9 92 C-5.40592317 92.0342701 -1.97309913 92.51147391 1.58984375 92.96875 C5.51177565 93.00468981 6.99195333 92.46733322 10 90 C11.68487403 87.72639226 11.68487403 87.72639226 12.875 85.125 C13.30554688 84.28195312 13.73609375 83.43890625 14.1796875 82.5703125 C15.79868744 77.49744601 13.35149235 73.22969124 11.234375 68.58984375 C10.8214621 67.67761803 10.8214621 67.67761803 10.40020752 66.7469635 C9.5217048 64.80820477 8.63626179 62.87272249 7.75 60.9375 C6.59635614 58.4061255 5.4458672 55.87333268 4.296875 53.33984375 C4.01467606 52.71899902 3.73247711 52.0981543 3.44172668 51.45849609 C1.65573274 47.51037643 -0.04380105 43.53498127 -1.69140625 39.52734375 C-3.51064349 35.10798074 -5.48753093 30.86673812 -7.6875 26.625 C-11.3278262 19.60264126 -13.75545984 13.93232837 -13 6 C-9.33747506 0.26204426 -6.68906908 -0.45349621 0 0 Z " fill="#2eff8e" transform="translate(645,512)"/>
<path d="M0 0 C0.71577713 -0.00511093 1.43155426 -0.01022186 2.16902161 -0.01548767 C4.5360245 -0.02939203 6.9027365 -0.0284263 9.26977539 -0.02612305 C10.91500456 -0.03000956 12.56023273 -0.03434414 14.20545959 -0.03910828 C17.65458427 -0.04657232 21.10360658 -0.04627792 24.55273438 -0.04101562 C28.97253135 -0.0352211 33.39190925 -0.05215045 37.81163692 -0.0753603 C41.20970611 -0.09009308 44.60767427 -0.09096997 48.00576973 -0.08785057 C49.6352579 -0.08836403 51.26475169 -0.09360636 52.89420891 -0.10366249 C55.17323906 -0.11600089 57.45145166 -0.10925149 59.73046875 -0.09765625 C61.02713974 -0.09828568 62.32381073 -0.0989151 63.65977478 -0.0995636 C67.11972196 0.29637694 68.54945102 0.76961636 70.92993164 3.2746582 C72.12940296 9.80511314 69.42249087 14.92973695 65.92993164 20.2746582 C58.953666 28.94005903 50.69454546 33.72015399 39.92993164 36.2746582 C27.11625514 37.59654225 14.71233952 36.79641168 4.05493164 28.9621582 C-2.39888389 23.47699853 -9.04980563 16.77453427 -10.41772461 8.05981445 C-10.50756836 5.8996582 -10.50756836 5.8996582 -10.07006836 2.2746582 C-6.35194275 -0.2040922 -4.44206752 0.01579345 0 0 Z " fill="#2eff8e" transform="translate(724.070068359375,558.725341796875)"/>
<path d="M0 0 C2.8100346 1.79363911 4.50940468 3.01880935 6 6 C6.11778055 8.25019703 6.1698656 10.50392014 6.19287109 12.75708008 C6.20104858 13.45159775 6.20922607 14.14611542 6.21765137 14.86167908 C6.24250069 17.16428769 6.25902027 19.46683466 6.2734375 21.76953125 C6.27876118 22.55580084 6.28408485 23.34207043 6.28956985 24.15216637 C6.31629975 28.31408081 6.3356749 32.47596529 6.35009766 36.63793945 C6.36674332 40.9356669 6.41151986 45.23262716 6.4624691 49.53006458 C6.49613432 52.83551407 6.50767421 56.1407813 6.51332474 59.44638634 C6.52003956 61.03044179 6.53526785 62.61448514 6.55921555 64.19837379 C6.59085686 66.41779607 6.59090691 68.63514749 6.58349609 70.85473633 C6.59158295 72.11667313 6.5996698 73.37860992 6.60800171 74.67878723 C5.83815474 78.88408067 4.26160521 80.33389412 1 83 C-1.39715421 84.19857711 -2.65799652 84.08022212 -5.3125 83.875 C-6.07175781 83.83117187 -6.83101562 83.78734375 -7.61328125 83.7421875 C-11.13102173 82.64829112 -12.66701791 80.82003605 -15 78 C-15.63491821 74.7436676 -15.63491821 74.7436676 -15.64697266 71.01000977 C-15.65573425 70.32641388 -15.66449585 69.64281799 -15.67352295 68.93850708 C-15.69544927 66.68881909 -15.68098964 64.44111265 -15.6640625 62.19140625 C-15.66743304 60.62108485 -15.67228765 59.05076599 -15.67855835 57.48045349 C-15.68592073 54.19268911 -15.67524708 50.90560505 -15.65185547 47.61791992 C-15.62339039 43.41322084 -15.63975949 39.21011914 -15.66971779 35.00547886 C-15.68782873 31.76336237 -15.68201522 28.52162145 -15.66907883 25.27949333 C-15.66575402 23.72981513 -15.6697993 22.18010233 -15.68147659 20.63046455 C-15.69424691 18.45919314 -15.67472811 16.29046757 -15.64697266 14.11938477 C-15.64299469 12.88648209 -15.63901672 11.65357941 -15.63491821 10.38331604 C-14.79090287 5.8857751 -13.19207133 4.23279624 -10 1 C-6.79826746 -0.60086627 -3.47422941 -0.49917089 0 0 Z " fill="#2eff8e" transform="translate(251,512)"/>
<path d="M0 0 C-0.50071701 4.11700653 -2.53182437 5.65210627 -5.625 8.25 C-9.45909832 11.58447077 -12.88261018 14.95554447 -16.15234375 18.8359375 C-18.38858188 21.4551255 -20.72499029 23.97089113 -23.0625 26.5 C-26.37913381 30.14081606 -29.49638737 33.79797577 -32.3828125 37.78515625 C-34.4903256 40.67153289 -36.68532143 43.48840557 -38.875 46.3125 C-42.84599452 51.44095257 -46.66776993 56.65183769 -50.40625 61.953125 C-52.56466412 64.72520588 -53.63996533 64.93519376 -57.125 65.5625 C-64.43938928 64.50073381 -68.3204262 57.95956822 -72.625 52.375 C-73.18445313 51.62476563 -73.74390625 50.87453125 -74.3203125 50.1015625 C-75.92087596 48.09899706 -77.59719044 46.45989799 -79.5 44.75 C-82 42 -82 42 -82.125 39.3125 C-80.71755861 36.41942604 -79.91190913 35.4186224 -77 34 C-72.69189997 33.28198333 -70.45315411 33.04397756 -66.7734375 35.46484375 C-63.68729625 38.11892522 -61.2647831 40.60282535 -59 44 C-57.515 44.495 -57.515 44.495 -56 45 C-55.77739502 44.45359863 -55.55479004 43.90719727 -55.32543945 43.34423828 C-53.59023239 40.27526458 -51.26798677 37.96265525 -48.79296875 35.4921875 C-48.27172928 34.9666629 -47.75048981 34.44113831 -47.2134552 33.89968872 C-46.10555132 32.78604739 -44.99502453 31.67501017 -43.88208008 30.56640625 C-42.22259493 28.9100292 -40.57674962 27.24095204 -38.93164062 25.5703125 C-11.67934184 -1.84410661 -11.67934184 -1.84410661 0 0 Z " fill="#2eff8e" transform="translate(226,493)"/>
<path d="M0 0 C4.10219771 1.81259899 6.76415359 4.10797107 9 8 C9.69020462 12.6550467 9.56612193 16.64130736 7.75 21 C5.26975072 23.8345706 3.14446966 24.83576342 -0.5859375 25.37109375 C-9.04284983 25.57244881 -9.04284983 25.57244881 -12.625 22.625 C-16.17094497 18.70579766 -16.29297461 16.36911538 -16.2109375 11.25 C-15.77815951 6.63370148 -13.69368327 4.58332456 -10.25 1.6875 C-6.42096006 -0.30065535 -4.26044487 -0.54223844 0 0 Z " fill="#2eff8e" transform="translate(250,476)"/>
<path d="M0 0 C0.66 0.33 1.32 0.66 2 1 C1.38125 1.2475 0.7625 1.495 0.125 1.75 C-2.41292362 3.24289625 -2.7414688 4.40427941 -4 7 C-6.125 8.75 -6.125 8.75 -8 10 C-7.44449305 6.40094092 -6.25112752 5.00090201 -3.4375 2.75 C-2.79683594 2.22921875 -2.15617187 1.7084375 -1.49609375 1.171875 C-1.00238281 0.78515625 -0.50867188 0.3984375 0 0 Z " fill="#2eff8e" transform="translate(307,514)"/>
<path d="M0 0 C0 0.33 0 0.66 0 1 C-1.546875 1.0928125 -1.546875 1.0928125 -3.125 1.1875 C-7.88462827 2.18548657 -9.53592963 3.70490867 -13 7 C-13 4 -13 4 -11 1.8125 C-6.98946389 -0.61053223 -4.62201404 -0.31335688 0 0 Z " fill="#2eff8e" transform="translate(251,512)"/>
<path d="M0 0 C0 0.33 0 0.66 0 1 C-1.5778125 1.37125 -1.5778125 1.37125 -3.1875 1.75 C-6.8133541 2.76700786 -9.19910772 4.45373429 -12 7 C-12 4 -12 4 -9.9375 1.8125 C-6.3675734 -0.39022067 -4.12146058 -0.32325181 0 0 Z " fill="#2eff8e" transform="translate(704,512)"/>
<path d="M0 0 C0.99 0.33 1.98 0.66 3 1 C2.34 1.66 1.68 2.32 1 3 C0.54188325 4.97235333 0.54188325 4.97235333 0.375 7.125 C0.25125 8.40375 0.1275 9.6825 0 11 C-2 9 -2 9 -2.01171875 7.08984375 C-1.11111111 1.11111111 -1.11111111 1.11111111 0 0 Z " fill="#2eff8e" transform="translate(632,607)"/>
<path d="M0 0 C0.66 0.33 1.32 0.66 2 1 C-0.65654657 4.73884332 -2.58110387 6.64978174 -7 8 C-6.02133662 6.85373678 -5.04205413 5.70800212 -4.0625 4.5625 C-3.51722656 3.92441406 -2.97195313 3.28632812 -2.41015625 2.62890625 C-1.63204305 1.73008851 -0.84063472 0.84063472 0 0 Z " fill="#2eff8e" transform="translate(895,551)"/>
<path d="M0 0 C0.99 0.33 1.98 0.66 3 1 C-0.465 3.97 -0.465 3.97 -4 7 C-4.66 6.67 -5.32 6.34 -6 6 C-4.02 4.02 -2.04 2.04 0 0 Z " fill="#2eff8e" transform="translate(188,518)"/>
<path d="M0 0 C-1.04874998 2.62187494 -1.64931313 3.79371361 -4.125 5.25 C-4.74375 5.4975 -5.3625 5.745 -6 6 C-3.84615385 0 -3.84615385 0 0 0 Z " fill="#2eff8e" transform="translate(601,481)"/>
</svg>
